<mxfile host="app.diagrams.net" modified="2022-10-05T20:57:14.779Z" agent="5.0 (Windows NT 10.0; Win64; x64) AppleWebKit/537.36 (KHTML, like Gecko) Chrome/105.0.0.0 Safari/537.36" etag="23h637SUJcQTcjl-GTlS" version="20.4.0" type="github">
  <diagram id="Q12gAVXecOmK2C1qlSou" name="PÃ¡gina-1">
    <mxGraphModel dx="1038" dy="579" grid="1" gridSize="10" guides="1" tooltips="1" connect="1" arrows="1" fold="1" page="1" pageScale="1" pageWidth="827" pageHeight="1169" math="0" shadow="0">
      <root>
        <mxCell id="0" />
        <mxCell id="1" parent="0" />
        <mxCell id="enG-OFTQPbe9g349x_uh-1" value="EQUIPO 1" style="ellipse;whiteSpace=wrap;html=1;fillColor=#dae8fc;strokeColor=#6c8ebf;" vertex="1" parent="1">
          <mxGeometry x="160" y="120" width="160" height="120" as="geometry" />
        </mxCell>
        <mxCell id="enG-OFTQPbe9g349x_uh-2" value="EQUIPO 2" style="ellipse;whiteSpace=wrap;html=1;fillColor=#fff2cc;strokeColor=#d6b656;" vertex="1" parent="1">
          <mxGeometry x="520" y="120" width="160" height="120" as="geometry" />
        </mxCell>
        <mxCell id="enG-OFTQPbe9g349x_uh-4" value="" style="endArrow=classic;startArrow=classic;html=1;rounded=0;entryX=0;entryY=0.5;entryDx=0;entryDy=0;exitX=1;exitY=0.5;exitDx=0;exitDy=0;" edge="1" parent="1" source="enG-OFTQPbe9g349x_uh-1" target="enG-OFTQPbe9g349x_uh-2">
          <mxGeometry width="50" height="50" relative="1" as="geometry">
            <mxPoint x="340" y="180" as="sourcePoint" />
            <mxPoint x="390" y="130" as="targetPoint" />
            <Array as="points">
              <mxPoint x="420" y="80" />
            </Array>
          </mxGeometry>
        </mxCell>
        <mxCell id="enG-OFTQPbe9g349x_uh-5" value="VALOR EQUIPO 1" style="text;html=1;align=center;verticalAlign=middle;resizable=0;points=[];autosize=1;strokeColor=none;fillColor=none;rotation=-45;" vertex="1" parent="1">
          <mxGeometry x="300" y="100" width="120" height="30" as="geometry" />
        </mxCell>
        <mxCell id="enG-OFTQPbe9g349x_uh-6" value="VALOR EQUIPO 2" style="text;html=1;align=center;verticalAlign=middle;resizable=0;points=[];autosize=1;strokeColor=none;fillColor=none;rotation=45;" vertex="1" parent="1">
          <mxGeometry x="420" y="100" width="120" height="30" as="geometry" />
        </mxCell>
        <mxCell id="enG-OFTQPbe9g349x_uh-7" value="" style="endArrow=classic;startArrow=classic;html=1;rounded=0;exitX=1;exitY=0.5;exitDx=0;exitDy=0;entryX=0;entryY=0.5;entryDx=0;entryDy=0;" edge="1" parent="1" source="enG-OFTQPbe9g349x_uh-1" target="enG-OFTQPbe9g349x_uh-2">
          <mxGeometry width="50" height="50" relative="1" as="geometry">
            <mxPoint x="390" y="330" as="sourcePoint" />
            <mxPoint x="440" y="280" as="targetPoint" />
            <Array as="points">
              <mxPoint x="420" y="280" />
            </Array>
          </mxGeometry>
        </mxCell>
        <mxCell id="enG-OFTQPbe9g349x_uh-8" value="JUGADORES EQUIPO 1" style="text;html=1;align=center;verticalAlign=middle;resizable=0;points=[];autosize=1;strokeColor=none;fillColor=none;rotation=45;" vertex="1" parent="1">
          <mxGeometry x="290" y="240" width="150" height="30" as="geometry" />
        </mxCell>
        <mxCell id="enG-OFTQPbe9g349x_uh-9" value="JUGADORES EQUIPO 2" style="text;html=1;align=center;verticalAlign=middle;resizable=0;points=[];autosize=1;strokeColor=none;fillColor=none;rotation=-45;" vertex="1" parent="1">
          <mxGeometry x="400" y="240" width="150" height="30" as="geometry" />
        </mxCell>
      </root>
    </mxGraphModel>
  </diagram>
</mxfile>
